<?xml version="1.0" encoding="UTF-8" standalone="no"?><!DOCTYPE svg PUBLIC "-//W3C//DTD SVG 1.1//EN" "http://www.w3.org/Graphics/SVG/1.1/DTD/svg11.dtd"><svg width="100%" height="100%" viewBox="0 0 50 82" version="1.1" xmlns="http://www.w3.org/2000/svg" xmlns:xlink="http://www.w3.org/1999/xlink" xml:space="preserve" xmlns:serif="http://www.serif.com/" style="fill-rule:evenodd;clip-rule:evenodd;stroke-linecap:round;"><rect id="w-marker-icon-2x" x="0" y="0" width="50" height="82" style="fill:none;"/><clipPath id="_clip1"><rect x="0" y="0" width="50" height="82"/></clipPath><g clip-path="url(#_clip1)"><g><rect x="8.088" y="9.2" width="34" height="34" style="fill:#fff;"/><path d="M30.605,36.701l3.483,-19.002l-3.683,0l-1.69,9.767l-0.048,0l-2.918,-9.767l-1.298,0l-2.966,9.607l-0.048,0l-1.594,-9.607l-3.755,0l3.412,19.002l2.694,0l2.846,-9.607l0.048,0l2.894,9.607l2.623,0Z" style="fill:#232444;fill-rule:nonzero;"/><path d="M25.088,2.516c-13.146,0 -24.088,11.382 -24.088,23.732c0,5.556 3.128,12.616 5.388,17.492l18.612,35.744l18.524,-35.744c2.26,-4.876 5.476,-11.582 5.476,-17.492c0,-12.35 -10.766,-23.732 -23.912,-23.732Zm0,7.684c8.836,0.058 16,7.232 16,16.053c0,8.82 -7.164,15.892 -16,15.947c-8.836,-0.058 -16,-7.123 -16,-15.947c0,-8.821 7.164,-15.995 16,-16.053Z" style="fill:#b7e4cf;fill-rule:nonzero;stroke:#232444;stroke-width:2.2px;"/></g></g></svg>